<svg width="37" height="37" viewBox="0 0 37 37" fill="none" xmlns="http://www.w3.org/2000/svg">
<path fill-rule="evenodd" clip-rule="evenodd" d="M2.84615 18.5C2.84615 9.85465 9.85465 2.84615 18.5 2.84615C27.1454 2.84615 34.1538 9.85465 34.1538 18.5C34.1538 27.1454 27.1454 34.1538 18.5 34.1538C9.85465 34.1538 2.84615 27.1454 2.84615 18.5ZM18.5 0C8.28273 0 0 8.28273 0 18.5C0 28.7173 8.28273 37 18.5 37C28.7173 37 37 28.7173 37 18.5C37 8.28273 28.7173 0 18.5 0ZM19.9231 8.53847C19.9231 7.75251 19.286 7.11538 18.5 7.11538C17.714 7.11538 17.0769 7.75251 17.0769 8.53847V18.5C17.0769 19.286 17.714 19.9231 18.5 19.9231H28.4615C29.2475 19.9231 29.8846 19.286 29.8846 18.5C29.8846 17.714 29.2475 17.0769 28.4615 17.0769H19.9231V8.53847Z" fill="#FFEDE3"/>
</svg>
