<svg width="24" height="24" viewBox="0 0 24 24" fill="none" xmlns="http://www.w3.org/2000/svg">
<path d="M11.8974 23.8671H6.62687C5.05074 23.8634 3.52743 23.2989 2.32983 22.2747C1.13224 21.2505 0.338618 19.8335 0.0911574 18.2776C0.0307788 17.901 0.000389728 17.5202 0.000283109 17.1388C0.000283109 13.6593 0.000283109 10.1798 0.000283109 6.70039C-0.0143943 5.11179 0.542061 3.57074 1.56838 2.35768C2.59469 1.14462 4.02264 0.340198 5.59234 0.0908325C5.91309 0.033369 6.23811 0.00298207 6.56395 0C10.1475 0 13.7311 0 17.3147 0C18.8763 0.0209922 20.3806 0.591467 21.5631 1.61117C22.7456 2.63087 23.5307 4.03455 23.7805 5.57552C23.8399 5.95929 23.8703 6.347 23.8714 6.73534C23.8714 10.2055 23.8714 13.6779 23.8714 17.1527C23.8882 18.9102 23.2077 20.6027 21.9788 21.8598C20.75 23.1169 19.0729 23.8362 17.3147 23.8601C15.5112 23.8811 13.7148 23.8671 11.8974 23.8671ZM21.4598 11.9475C21.4598 10.2427 21.4598 8.53096 21.4598 6.82617C21.4645 6.54768 21.4435 6.26934 21.3969 5.99473C21.2283 4.97839 20.6972 4.05747 19.9017 3.40238C19.1062 2.74729 18.1003 2.40236 17.07 2.43143H6.79463C6.52533 2.42813 6.25628 2.44917 5.99077 2.49431C4.97257 2.65793 4.04819 3.18484 3.38887 3.97746C2.72955 4.77008 2.37996 5.77471 2.40487 6.80521C2.40487 10.2427 2.40487 13.6826 2.40487 17.1248C2.40255 17.387 2.4236 17.6489 2.46778 17.9073C2.62979 18.9251 3.15529 19.8497 3.94696 20.51C4.73863 21.1703 5.74284 21.5215 6.77366 21.4986H17.098C17.6315 21.5031 18.1616 21.4132 18.6638 21.2331C19.4913 20.9287 20.2044 20.3758 20.705 19.6503C21.2056 18.9247 21.4693 18.062 21.4598 17.1807C21.4877 15.427 21.4808 13.6873 21.4808 11.9475H21.4598Z" fill="white"/>
<path d="M16.2187 7.19569C15.8274 7.05197 15.4089 6.97508 14.9853 6.96905C14.7577 6.94958 14.5281 6.97708 14.3146 7.0494C14.101 7.12173 13.9092 7.2369 13.7543 7.38589C13.5994 7.53488 13.4856 7.71364 13.4218 7.90815C13.3579 8.10265 13.3458 8.30759 13.3864 8.50693V9.5268H15.8533V11.7041H13.3864V19.086H10.0699V11.7041H8.24255V9.5349H10.0699V8.35314C10.0487 7.86589 10.1444 7.38023 10.3508 6.92817C10.5571 6.47611 10.8693 6.06795 11.2667 5.73065C12.1653 5.03387 13.3361 4.67648 14.5285 4.73506C15.0962 4.72296 15.6627 4.78571 16.2096 4.92124V7.21997L16.2187 7.19569Z" fill="white"/>
</svg>
