<svg width="23" height="27" viewBox="0 0 23 27" fill="none" xmlns="http://www.w3.org/2000/svg">
<path d="M11.154 26.8L10.9518 26.6131L3.30991 19.0085C1.95728 17.6809 0.969186 16.0303 0.439959 14.2145C-0.0892669 12.3987 -0.141969 10.4782 0.286889 8.63632C0.715747 6.79447 1.61185 5.09274 2.88966 3.69357C4.16746 2.2944 5.78433 1.24449 7.5859 0.644057C11.9197 -0.793476 15.7406 0.219996 19.0415 3.23881C20.6226 4.71627 21.6816 6.66259 22.0607 8.78769C22.4803 10.6186 22.4146 12.5266 21.8701 14.3246C21.3256 16.1226 20.3211 17.7491 18.9549 19.0445C16.434 21.5817 13.8988 24.0758 11.3563 26.6131L11.154 26.8ZM11.154 23.0552C11.2696 22.9258 11.3707 22.8036 11.4719 22.6958C13.3859 20.7479 15.3145 18.8217 17.1997 16.8594C18.2006 15.8818 18.9237 14.658 19.2954 13.3122C19.6671 11.9664 19.6742 10.5467 19.316 9.19737C18.8733 7.23264 17.7264 5.49573 16.0898 4.31168C14.4533 3.12762 12.4392 2.57757 10.4245 2.76443C8.38031 2.89311 6.46404 3.79894 5.07231 5.29448C3.62068 6.8612 2.81374 8.91358 2.81152 11.0446C2.75705 12.1797 2.94448 13.3134 3.36151 14.3713C3.77853 15.4292 4.41571 16.3874 5.23122 17.1829C7.12363 19.0996 9.02327 20.9923 10.9301 22.8611L11.154 23.0552Z" fill="white"/>
<path d="M8.20857 10.5932C8.21157 10.0404 8.3786 9.501 8.68849 9.04327C8.99837 8.58554 9.43717 8.23011 9.94926 8.02204C10.4613 7.81396 11.0237 7.7626 11.565 7.87446C12.1063 7.98632 12.6022 8.25638 12.9899 8.65039C13.3776 9.04441 13.6396 9.54464 13.7427 10.0877C13.8457 10.6308 13.7853 11.1922 13.569 11.7009C13.3526 12.2096 12.9902 12.6426 12.5275 12.9451C12.0649 13.2475 11.5228 13.4058 10.9701 13.3999C10.6039 13.3989 10.2416 13.3253 9.90401 13.1834C9.56646 13.0414 9.26041 12.834 9.00358 12.5729C8.74675 12.3119 8.54424 12.0025 8.40778 11.6627C8.27131 11.3229 8.2036 10.9594 8.20857 10.5932Z" fill="white"/>
</svg>
