<svg width="34" height="39" viewBox="0 0 34 39" fill="none" xmlns="http://www.w3.org/2000/svg">
<path d="M8.70516 0C8.09525 0 7.59623 0.506493 7.59623 1.12554V2.98268H4.93477C2.21788 2.98268 0 5.23377 0 7.99134V30.3333C0 33.0909 2.21788 35.342 4.93477 35.342H20.1827C21.8461 37.0866 23.3986 38.6623 23.3986 38.6623C23.6204 38.8874 23.8976 39 24.1748 39C24.4521 39 24.7293 38.8874 24.9511 38.6623L32.3255 31.1775C34.3216 29.1515 34.5434 25.9437 32.9355 23.6364V7.99134C32.9355 5.23377 30.7176 2.98268 28.0007 2.98268H25.3392V1.12554C25.3392 0.506493 24.8402 0 24.2303 0C23.6204 0 23.1214 0.506493 23.1214 1.12554V2.98268H9.8141V1.12554C9.8141 0.506493 9.31508 0 8.70516 0ZM4.93477 33.0909C3.43771 33.0909 2.21788 31.8528 2.21788 30.3333V14.0693H30.773V21.7229C29.9968 21.329 29.1651 21.1602 28.2779 21.1602C26.7809 21.1602 25.3392 21.7229 24.2303 22.7922C23.1214 21.7229 21.7352 21.1602 20.1827 21.1602C18.6302 21.1602 17.1885 21.7792 16.0796 22.9048C13.8063 25.2121 13.8063 28.9264 16.0796 31.2338C16.135 31.29 16.9113 32.0779 17.9093 33.1472H4.93477V33.0909ZM30.773 29.6017L24.1748 36.2987C22.3451 34.3853 17.7985 29.7706 17.6876 29.6017C16.3014 28.1948 16.3014 25.8874 17.6876 24.4805C18.3529 23.8052 19.2401 23.4113 20.1827 23.4113C21.1253 23.4113 22.0124 23.8052 22.7332 24.4805L23.454 25.2121C23.6758 25.4372 23.9531 25.5498 24.2303 25.5498C24.5075 25.5498 24.7848 25.4372 25.0066 25.2121L25.7274 24.4805C26.3927 23.8052 27.2799 23.4113 28.2225 23.4113C29.1651 23.4113 30.0522 23.8052 30.7176 24.4805C32.1592 25.8874 32.1592 28.1948 30.773 29.6017ZM23.1214 5.23377V6.19048C23.1214 6.80952 23.6204 7.31602 24.2303 7.31602C24.8402 7.31602 25.3392 6.80952 25.3392 6.19048V5.23377H28.0007C29.4978 5.23377 30.7176 6.47186 30.7176 7.99134V11.8182H2.21788V7.99134C2.21788 6.47186 3.43771 5.23377 4.93477 5.23377H7.59623V6.19048C7.59623 6.80952 8.09525 7.31602 8.70516 7.31602C9.31508 7.31602 9.8141 6.80952 9.8141 6.19048V5.23377H23.1214Z" fill="#FFEDE3"/>
</svg>
