<svg width="25" height="26" viewBox="0 0 25 26" fill="none" xmlns="http://www.w3.org/2000/svg">
<path d="M0.131236 5.72702C0.0680498 4.90642 0.0680498 4.08217 0.131236 3.26157C0.257003 2.48372 0.657454 1.77701 1.25964 1.27018C1.86183 0.763344 2.62569 0.490131 3.41207 0.500272H6.21718C6.66664 0.500267 7.11168 0.589221 7.52673 0.762056C7.94177 0.934892 8.31864 1.18823 8.63569 1.50743C8.95275 1.82664 9.20374 2.20545 9.37425 2.62213C9.54475 3.03881 9.63141 3.48513 9.62925 3.93547C9.62925 4.88877 9.62925 5.84207 9.62925 6.79538C9.58931 7.65432 9.23084 8.46741 8.624 9.07544C8.01717 9.68346 7.20568 10.0426 6.34842 10.0826C6.12019 10.079 5.89462 10.1322 5.692 10.2375C5.48937 10.3428 5.31603 10.4969 5.18754 10.686C5.05905 10.875 4.97945 11.0931 4.95588 11.3205C4.93231 11.548 4.9655 11.7778 5.05249 11.9893C5.79075 13.8769 6.89602 15.5987 8.30406 17.0546C9.7121 18.5106 11.3949 19.6717 13.2546 20.4704C13.4573 20.5785 13.685 20.6307 13.9144 20.6217C14.1439 20.6126 14.3668 20.5426 14.5604 20.4189C14.754 20.2951 14.9113 20.1221 15.0162 19.9175C15.1211 19.7128 15.1698 19.4839 15.1575 19.2542C15.1659 18.793 15.266 18.3382 15.4519 17.9163C15.6379 17.4943 15.906 17.1139 16.2406 16.797C16.5751 16.4802 16.9693 16.2334 17.4002 16.0711C17.8311 15.9088 18.29 15.8343 18.75 15.8518H21.5551C22.0067 15.8497 22.4543 15.9369 22.8721 16.1086C23.29 16.2803 23.6699 16.533 23.99 16.8522C24.3101 17.1714 24.5641 17.5508 24.7374 17.9686C24.9107 18.3865 25 18.8345 25 19.287C25 20.2075 25 21.1443 25 22.0648C25.0021 22.5165 24.9149 22.9642 24.7434 23.382C24.5719 23.7997 24.3194 24.1792 24.0006 24.4987C23.6818 24.8181 23.303 25.0711 22.8861 25.2429C22.4691 25.4148 22.0223 25.5021 21.5715 25.5C20.1115 25.5 18.6351 25.5 17.1916 25.4178C14.2526 25.198 11.4155 24.2429 8.94028 22.64C4.7465 19.9921 1.74599 15.8126 0.57415 10.9867C0.414364 10.4046 0.299201 9.81116 0.229664 9.21152C0.114834 8.06098 0.0656167 6.91047 0 5.75993H0.131236V5.72702Z" fill="#FFF6F1"/>
</svg>
