<svg width="26" height="25" viewBox="0 0 26 25" fill="none" xmlns="http://www.w3.org/2000/svg">
<path d="M25.6663 12.1926C25.6639 13.8347 25.3437 15.4604 24.7237 16.9779C24.1429 18.4233 23.275 19.7327 22.1739 20.825C21.1271 21.8773 19.9287 22.7631 18.6197 23.4522C17.3842 24.1273 16.0295 24.5497 14.6328 24.6954C13.9669 24.7863 13.2959 24.8333 12.6239 24.8362C11.868 24.782 11.1168 24.6748 10.3755 24.5156C9.17754 24.2567 8.02581 23.8137 6.96036 23.202C6.70697 23.1358 6.4411 23.1358 6.18771 23.202L3.2748 23.546C2.69531 23.6164 2.12355 23.718 1.54406 23.765C1.29776 23.7865 1.05018 23.7427 0.825734 23.6378C0.601291 23.5329 0.407746 23.3707 0.264205 23.167C0.120664 22.9633 0.0320875 22.7252 0.00721465 22.4763C-0.0176582 22.2274 0.0220346 21.9763 0.122374 21.7476C0.369624 21.1455 0.485521 20.4887 0.670958 19.871C0.972293 18.8936 1.28908 17.9318 1.58269 16.9544C1.60959 16.8414 1.60959 16.7235 1.58269 16.6104C1.37407 15.6956 1.12682 14.7963 0.964567 13.8737C0.746418 12.4203 0.830633 10.9369 1.21182 9.51838C1.47143 8.41811 1.8934 7.36371 2.46352 6.3907C2.97557 5.49415 3.58738 4.65989 4.28698 3.9042C5.14731 2.96857 6.14873 2.17683 7.25397 1.55844C7.74735 1.27133 8.26439 1.02803 8.79928 0.831262C9.6077 0.551559 10.4337 0.326894 11.2718 0.158798C11.9459 0.0263475 12.6334 -0.0235345 13.3193 0.0102317C14.2633 0.0709756 15.2026 0.191119 16.1318 0.369932C16.7399 0.488061 17.3351 0.666139 17.9089 0.901632C18.9319 1.31502 19.8918 1.87313 20.76 2.5593C21.5394 3.18106 22.2423 3.89509 22.8539 4.68612C23.5607 5.52854 24.127 6.48195 24.5305 7.50884C24.8122 8.23175 25.0521 8.97062 25.2491 9.72169C25.4423 10.5114 25.535 11.3637 25.6663 12.1926ZM3.58386 20.7468L4.67331 20.6451C5.29143 20.5747 5.90183 20.4731 6.51995 20.4183C6.96716 20.3379 7.42488 20.3379 7.8721 20.4183C8.38969 20.6206 8.88233 20.883 9.34014 21.2003C10.1707 21.6616 11.0857 21.9463 12.029 22.0369C12.8559 22.1262 13.69 22.1262 14.5169 22.0369C15.6308 21.9136 16.707 21.5567 17.6771 20.9892C18.5628 20.4933 19.3702 19.866 20.0723 19.1282C20.83 18.3401 21.4424 17.4212 21.8803 16.4149C22.2869 15.5364 22.5329 14.5907 22.6066 13.6235C22.6841 12.8435 22.6841 12.0577 22.6066 11.2777C22.4575 10.4351 22.2245 9.60984 21.9112 8.81466C21.3612 7.32034 20.3884 6.02311 19.1142 5.08491C18.4949 4.65158 17.8498 4.25726 17.1826 3.9042C16.229 3.38691 15.1728 3.09297 14.092 3.04408C13.3936 3.00904 12.6937 3.02734 11.9981 3.09882C10.4438 3.24784 8.96135 3.83275 7.71756 4.78777C6.70758 5.52196 5.84927 6.449 5.19098 7.51667C4.22182 9.08792 3.72766 10.9116 3.7693 12.7633C3.78019 13.9412 4.03003 15.1042 4.50332 16.1804C4.6316 16.5088 4.6559 16.8694 4.57286 17.2125C4.30243 18.3541 3.93929 19.5426 3.58386 20.7468Z" fill="white"/>
<path d="M8.17733 9.62332C8.14911 9.25679 8.14911 8.88862 8.17733 8.52209C8.23351 8.17465 8.41238 7.85898 8.68135 7.6326C8.95033 7.40621 9.29152 7.28418 9.64277 7.28871H10.8957C11.0965 7.28871 11.2953 7.32844 11.4806 7.40564C11.666 7.48284 11.8344 7.59599 11.976 7.73857C12.1176 7.88115 12.2297 8.05035 12.3059 8.23647C12.382 8.42259 12.4207 8.62194 12.4198 8.82309C12.4198 9.2489 12.4198 9.67471 12.4198 10.1005C12.4019 10.4842 12.2418 10.8474 11.9708 11.1189C11.6997 11.3905 11.3372 11.551 10.9543 11.5688C10.8524 11.5672 10.7516 11.591 10.6611 11.638C10.5706 11.6851 10.4932 11.7539 10.4358 11.8383C10.3784 11.9227 10.3429 12.0201 10.3323 12.1218C10.3218 12.2234 10.3366 12.326 10.3755 12.4205C10.7052 13.2636 11.1989 14.0326 11.8279 14.683C12.4568 15.3333 13.2084 15.8519 14.0391 16.2087C14.1296 16.257 14.2313 16.2803 14.3338 16.2763C14.4363 16.2722 14.5359 16.2409 14.6223 16.1857C14.7088 16.1304 14.7791 16.0531 14.8259 15.9617C14.8728 15.8703 14.8946 15.7681 14.889 15.6654C14.8928 15.4595 14.9375 15.2563 15.0206 15.0678C15.1036 14.8794 15.2234 14.7094 15.3728 14.5679C15.5222 14.4264 15.6983 14.3162 15.8908 14.2437C16.0833 14.1712 16.2882 14.1379 16.4937 14.1457H17.7466C17.9484 14.1448 18.1483 14.1837 18.3349 14.2604C18.5216 14.3371 18.6912 14.45 18.8342 14.5925C18.9772 14.7351 19.0907 14.9046 19.1681 15.0912C19.2455 15.2779 19.2854 15.478 19.2854 15.6801C19.2854 16.0912 19.2854 16.5097 19.2854 16.9208C19.2863 17.1226 19.2474 17.3226 19.1708 17.5092C19.0941 17.6958 18.9814 17.8653 18.839 18.008C18.6966 18.1507 18.5274 18.2637 18.3411 18.3404C18.1549 18.4172 17.9553 18.4562 17.754 18.4552C17.1018 18.4552 16.4424 18.4552 15.7976 18.4185C14.4848 18.3203 13.2176 17.8937 12.112 17.1778C10.2388 15.9951 8.89859 14.1282 8.37517 11.9726C8.3038 11.7126 8.25236 11.4476 8.2213 11.1797C8.17001 10.6658 8.14802 10.1519 8.11871 9.63802H8.17733V9.62332Z" fill="white"/>
</svg>
