<svg width="76" height="66" viewBox="0 0 76 66" fill="none" xmlns="http://www.w3.org/2000/svg">
<path d="M69.7943 49.2683C69.5604 49.0789 69.2656 48.9907 68.971 49.022C68.6764 49.0532 68.4047 49.2016 68.212 49.4363C68.1125 49.5572 68.0369 49.6975 67.9897 49.8492C67.9425 50.0008 67.9247 50.1607 67.9371 50.3196C67.9496 50.4785 67.9922 50.6332 68.0624 50.7748C68.1326 50.9163 68.229 51.042 68.3461 51.1443C68.8101 51.4498 69.2026 51.8598 69.495 52.3443C69.7874 52.8288 69.9721 53.3755 70.0357 53.9443C70.0357 58.4243 56.948 63.4643 38.1748 63.4643C19.4015 63.4643 6.31383 58.4243 6.31383 53.9443C6.38322 53.3806 6.56754 52.839 6.85437 52.356C7.14121 51.873 7.52388 51.4598 7.9766 51.1443C8.09563 51.044 8.19433 50.9199 8.26697 50.7793C8.33961 50.6387 8.38473 50.4845 8.39971 50.3255C8.41468 50.1665 8.39921 50.0061 8.3542 49.8534C8.30919 49.7007 8.23553 49.559 8.13752 49.4363C7.94876 49.1954 7.67621 49.0424 7.37961 49.0109C7.08301 48.9794 6.78655 49.072 6.5552 49.2683C5.82796 49.8002 5.22569 50.4973 4.79368 51.3072C4.36168 52.1171 4.11118 53.0188 4.06104 53.9443C4.06104 61.6723 21.6275 65.8443 38.1748 65.8443C54.7221 65.8443 72.3153 61.6723 72.3153 53.9443C72.2601 53.0169 72.0047 52.1144 71.5681 51.3047C71.1315 50.4949 70.5251 49.7987 69.7943 49.2683Z" fill="#E67F78"/>
<path d="M75.1846 27.8205C71.5146 25.545 67.4651 24.0154 63.2501 23.3125C63.6184 18.7067 63.3017 14.0692 62.3115 9.56453C62.2549 9.30057 62.1109 9.06594 61.9048 8.90202C61.6987 8.7381 61.4438 8.65541 61.1851 8.66853C56.4178 8.91437 51.7672 10.2934 47.5879 12.7005C45.5244 7.99508 42.5684 3.77538 38.8985 0.296527C38.6964 0.105673 38.4335 -9.26779e-10 38.161 -9.20097e-10C37.8884 -9.1342e-10 37.6256 0.105673 37.4235 0.296527C33.75 3.77843 30.7857 7.99693 28.7073 12.7005C24.5375 10.2938 19.8957 8.91467 15.1369 8.66853C14.8862 8.67649 14.6445 8.76764 14.4467 8.92875C14.249 9.08987 14.1056 9.31256 14.0373 9.56453C13.056 14.0707 12.7485 18.7082 13.1255 23.3125C8.90123 24.012 4.8424 25.5417 1.16422 27.8205C0.956695 27.9552 0.795515 28.1553 0.703931 28.3918C0.612347 28.6283 0.595094 28.8891 0.65466 29.1365C0.842393 29.7525 4.51659 44.6205 14.9224 50.3885C17.8298 51.9555 21.0643 52.7444 24.3358 52.6845C29.1277 52.5522 33.8406 51.3793 38.1744 49.2405C42.5082 51.3793 47.2211 52.5522 52.013 52.6845C55.2934 52.7479 58.5374 51.9589 61.4533 50.3885C71.8322 44.6205 75.5332 29.7525 75.6673 29.1365C75.7384 28.8924 75.7295 28.6304 75.6421 28.3921C75.5547 28.1538 75.3937 27.9527 75.1846 27.8205ZM60.3269 11.0205C60.9705 14.4085 62.6333 26.1405 57.5109 34.9045C53.721 40.6539 47.9604 44.6634 41.4195 46.1045C44.6646 42.0165 50.1357 33.7845 50.1357 24.0125C50.116 20.957 49.5991 17.9272 48.607 15.0525C52.1981 12.8763 56.1947 11.5299 60.3269 11.1045L60.3269 11.0205ZM38.1744 2.81653C40.5345 5.22453 47.7488 13.4565 47.7488 23.9565C47.7488 34.4565 40.5881 43.5565 38.1744 46.1605C35.7607 43.3605 28.6 34.4565 28.6 23.9565C28.6 13.4565 35.8143 5.22453 38.1744 2.81653ZM16.0219 11.2165C20.1866 11.5774 24.2288 12.8664 27.8759 14.9965C26.8838 17.8712 26.3668 20.901 26.3472 23.9565C26.789 32.1347 29.8599 39.9182 35.0634 46.0485C28.4745 44.6379 22.6618 40.6255 18.8379 34.8485C13.7155 26.2245 15.3783 14.4925 16.0219 11.1045L16.0219 11.2165ZM16.0219 48.4005C7.97624 43.8645 4.11431 32.6925 3.17564 29.5005C6.37178 27.698 9.83471 26.4677 13.4205 25.8605C13.9396 29.5577 15.1419 33.1143 16.9606 36.3325C21.0319 42.5521 27.2497 46.8865 34.3125 48.4285C29.9678 49.9405 22.3512 51.8445 15.9683 48.2885L16.0219 48.4005ZM60.4341 48.4005C54.078 51.9565 46.4615 50.0525 42.1704 48.4005C49.2256 46.8573 55.4345 42.5224 59.4955 36.3045C61.3414 33.0895 62.5455 29.5179 63.0356 25.8045C66.6274 26.4374 70.0966 27.6763 73.3073 29.4725C72.3149 32.5805 68.5067 43.7525 60.3805 48.2885L60.4341 48.4005Z" fill="#E67F78"/>
</svg>
