<svg width="79" height="79" viewBox="0 0 79 79" fill="none" xmlns="http://www.w3.org/2000/svg">
<path d="M67.922 16.001C67.924 12.6771 66.8878 9.4368 64.9601 6.73836C63.0324 4.03991 60.3108 2.01995 57.1802 0.964219C54.0495 -0.091514 50.6685 -0.129576 47.5152 0.855416C44.3619 1.84041 41.5961 3.79859 39.6089 6.45297C37.6217 3.79859 34.8559 1.84041 31.7026 0.855416C28.5493 -0.129576 25.1683 -0.091514 22.0376 0.964219C18.907 2.01995 16.1854 4.03991 14.2577 6.73836C12.33 9.4368 11.2938 12.6771 11.2958 16.001C11.2958 33.781 37.8845 50.329 39.1083 51.029C39.2935 51.1394 39.5049 51.1974 39.7202 51.197C39.936 51.2019 40.1486 51.1435 40.332 51.029C41.3611 50.413 67.922 33.781 67.922 16.001ZM39.6089 48.593C35.6039 46.017 13.6598 31.037 13.6598 16.001C13.6351 13.0176 14.5929 10.1101 16.3836 7.73297C18.1743 5.35581 20.697 3.64302 23.5572 2.86236C26.4174 2.0817 29.454 2.27717 32.1921 3.41822C34.9303 4.55926 37.2157 6.58156 38.6911 9.16896C38.8031 9.33644 38.9542 9.47364 39.1312 9.5685C39.3083 9.66336 39.5057 9.71297 39.7062 9.71297C39.9068 9.71297 40.1042 9.66336 40.2813 9.5685C40.4583 9.47364 40.6094 9.33644 40.7214 9.16896C42.1821 6.55889 44.4655 4.51362 47.2104 3.3567C49.9554 2.19978 53.0051 1.99725 55.8772 2.78116C58.7492 3.56506 61.2797 5.29064 63.0683 7.68493C64.8569 10.0792 65.8015 13.0055 65.7527 16.001C65.558 31.037 43.6139 46.017 39.6089 48.593Z" fill="#E67F78"/>
<path d="M26.9264 55.5651C25.1742 54.8651 23.6723 54.2491 18.7217 47.5011C18.0604 46.5475 17.068 45.8781 15.9405 45.6251C14.9255 43.2844 14.0887 40.8695 13.4373 38.4011C13.1052 36.7102 12.4841 35.0902 11.6017 33.6131C11.2663 33.1335 10.8262 32.7377 10.3151 32.4562C9.80402 32.1747 9.23561 32.0149 8.65359 31.9891C7.91008 31.9958 7.18129 32.1985 6.53984 32.5771C6.36818 32.2557 6.13064 31.9746 5.84296 31.7526C5.55527 31.5305 5.224 31.3725 4.87109 31.2891C4.39634 31.1564 3.89727 31.138 3.41414 31.2353C2.93102 31.3325 2.47738 31.5428 2.08984 31.8491C1.59815 32.3862 1.21912 33.0176 0.975401 33.7056C0.731683 34.3936 0.628288 35.124 0.6714 35.8531C0.33765 55.0331 12.3248 69.0051 19.5005 75.6131C21.253 77.188 23.4928 78.1042 25.8398 78.2063C28.1868 78.3084 30.4967 77.59 32.3776 76.1731L33.4902 75.3331C34.4797 74.5601 35.3026 73.5926 35.909 72.4894C36.5154 71.3861 36.8924 70.1702 37.0173 68.9156C37.1422 67.661 37.0123 66.3939 36.6354 65.1915C36.2585 63.989 35.6426 62.8764 34.8251 61.9211C30.4864 57.0491 28.4839 56.2371 26.9264 55.5651ZM8.59796 34.4251C8.81866 34.4315 9.03467 34.4907 9.22812 34.5978C9.42157 34.7049 9.58692 34.8569 9.71046 35.0411C10.3892 36.3545 10.8763 37.7597 11.1567 39.2131C11.8089 41.5323 12.5889 43.8132 13.493 46.0451C12.8799 46.2925 12.3078 46.6324 11.7964 47.0531C11.6716 47.1506 11.5595 47.2635 11.4627 47.3891C10.0263 43.9651 8.8819 40.4244 8.04171 36.8051C7.87484 36.1051 7.68015 35.4611 7.51328 34.8451C7.82393 34.5972 8.20236 34.4507 8.59796 34.4251ZM34.6861 68.7251C34.5839 69.6716 34.2831 70.5854 33.8036 71.406C33.3241 72.2266 32.6769 72.9353 31.9048 73.4851L30.7923 74.3251C29.3675 75.4273 27.6028 75.9892 25.8076 75.9124C24.0124 75.8356 22.3013 75.125 20.9745 73.9051C14.077 67.5211 2.56265 54.3051 2.8964 35.8251C2.8297 35.0809 3.02675 34.337 3.45265 33.7251C3.58645 33.6706 3.73604 33.6706 3.86984 33.7251C3.98924 33.7017 4.112 33.7017 4.2314 33.7251C4.85005 34.9107 5.28167 36.1859 5.51078 37.5051C6.68006 42.488 8.39645 47.3244 10.6283 51.9251C11.7964 54.8091 14.5776 58.8131 19.4448 63.7131C19.5569 63.829 19.691 63.9209 19.8391 63.9834C19.9873 64.046 20.1464 64.0778 20.307 64.0771C20.5348 64.0679 20.7553 63.9934 20.9424 63.8623C21.1295 63.7312 21.2755 63.549 21.3632 63.3371C21.4509 63.1253 21.4766 62.8926 21.4373 62.6665C21.398 62.4405 21.2953 62.2304 21.1414 62.0611C15.3008 56.0131 13.493 52.7931 12.9645 51.0291C12.5473 49.4611 12.9645 49.0131 13.2426 48.8731C13.5214 48.5845 13.8542 48.3543 14.2217 48.1957C14.5893 48.0371 14.9844 47.9533 15.3842 47.9491C15.6717 48.0046 15.9453 48.1175 16.1889 48.281C16.4325 48.4444 16.6411 48.6553 16.8027 48.9011C22.1705 56.2091 23.9505 56.9371 26.0086 57.7771C28.8361 59.0388 31.2688 61.0522 33.0452 63.6011C33.6576 64.2933 34.1199 65.1065 34.4025 65.9888C34.685 66.8711 34.7816 67.8031 34.6861 68.7251Z" fill="#E67F78"/>
<path d="M77.128 31.8768C76.7415 31.5685 76.2879 31.357 75.8043 31.2596C75.3208 31.1623 74.8213 31.1819 74.3467 31.3168C73.9938 31.4002 73.6626 31.5582 73.3749 31.7803C73.0872 32.0023 72.8496 32.2834 72.678 32.6048C72.0365 32.2263 71.3077 32.0235 70.5642 32.0168C69.9827 32.0447 69.415 32.2053 68.9042 32.4867C68.3935 32.7681 67.953 33.1627 67.6161 33.6408C66.7604 35.1209 66.141 36.7272 65.7805 38.4008C65.1291 40.8692 64.2923 43.2841 63.2774 45.6248C62.1582 45.8806 61.1697 46.5374 60.4961 47.4728C55.5455 54.2488 54.0436 54.8648 52.3192 55.5648C50.5949 56.2648 48.7314 57.0488 44.4205 61.9768C43.5939 62.9268 42.9695 64.0372 42.5859 65.2396C42.2022 66.442 42.0675 67.7108 42.19 68.9677C42.3125 70.2246 42.6896 71.4428 43.2981 72.5472C43.9065 73.6516 44.7334 74.6187 45.7277 75.3888L46.8402 76.2288C48.7211 77.6457 51.031 78.3641 53.378 78.262C55.7251 78.1599 57.9648 77.2437 59.7174 75.6688C66.893 69.0048 78.908 55.0328 78.5464 35.9368C78.5876 35.1993 78.4835 34.4609 78.2401 33.7641C77.9967 33.0673 77.6187 32.4259 77.128 31.8768ZM68.0611 39.2128C68.3481 37.8018 68.845 36.4424 69.5352 35.1808C69.6508 34.9954 69.8106 34.842 70 34.7344C70.1894 34.6268 70.4024 34.5685 70.6199 34.5648C71.0443 34.5728 71.4545 34.7203 71.788 34.9848C71.6211 35.6008 71.4264 36.2448 71.2596 36.9448C70.4194 40.5641 69.2749 44.1048 67.8386 47.5288C67.727 47.3477 67.586 47.1868 67.4214 47.0528C66.8858 46.5724 66.2749 46.1845 65.6136 45.9048C66.5626 43.7258 67.3799 41.4911 68.0611 39.2128ZM76.1824 36.0488C76.5161 54.3048 65.0574 67.6608 58.1321 74.0448C56.7982 75.2618 55.0832 75.9701 53.2847 76.0469C51.4862 76.1236 49.7178 75.5638 48.2864 74.4648L47.1739 73.6248C46.4313 73.0577 45.8132 72.3421 45.3585 71.5229C44.9038 70.7038 44.6223 69.7988 44.5317 68.8648C44.4322 67.9383 44.5268 67.001 44.8095 66.1136C45.0921 65.2262 45.5565 64.4083 46.1727 63.7128C47.9491 61.1639 50.3817 59.1505 53.2092 57.8888C55.2674 57.0488 57.0474 56.3208 62.4152 48.9568C62.7756 48.4939 63.2886 48.1761 63.8614 48.0608L64.0839 48.0608C64.803 48.1342 65.473 48.4616 65.9752 48.9848C66.142 48.9848 66.6983 49.5728 66.2533 51.1408C65.7249 52.9048 63.9449 56.2088 58.0764 62.1728C57.9662 62.2799 57.8786 62.4082 57.8187 62.5501C57.7589 62.692 57.728 62.8446 57.728 62.9988C57.728 63.153 57.7589 63.3056 57.8187 63.4475C57.8786 63.5894 57.9662 63.7177 58.0764 63.8248C58.181 63.9427 58.3098 64.0362 58.4539 64.0991C58.598 64.1619 58.7538 64.1925 58.9108 64.1888C59.0672 64.189 59.222 64.1568 59.3656 64.0942C59.5091 64.0315 59.6383 63.9398 59.7452 63.8248C64.6958 58.7848 67.5327 54.9208 68.4227 51.9528C70.6671 47.3575 72.384 42.5196 73.5402 37.5328C73.754 36.1576 74.2059 34.8308 74.8752 33.6128C75.3758 33.6128 75.5705 33.6128 75.6261 33.6128C76.0888 34.2818 76.2872 35.1005 76.1824 35.9088L76.1824 36.0488Z" fill="#E67F78"/>
<path d="M48.1473 21.2928L43.9476 21.2928L43.9476 17.0648C43.955 16.6667 43.8835 16.2711 43.7373 15.9011C43.591 15.5311 43.373 15.1942 43.0959 14.91C42.8188 14.6259 42.4882 14.4002 42.1235 14.2461C41.7588 14.0921 41.3672 14.0128 40.9717 14.0128L38.1904 14.0128C37.7986 14.0091 37.4099 14.084 37.0472 14.2333C36.6845 14.3825 36.3549 14.603 36.0778 14.882C35.8008 15.161 35.5817 15.4927 35.4335 15.8579C35.2852 16.2231 35.2108 16.6143 35.2145 17.0088L35.2145 21.2928L31.0704 21.2928C30.676 21.2965 30.2861 21.3783 29.923 21.5337C29.56 21.6891 29.2309 21.9149 28.9546 22.1983C28.6782 22.4817 28.46 22.8171 28.3125 23.1854C28.1649 23.5537 28.0908 23.9477 28.0945 24.3448L28.0945 27.1448C28.0945 27.537 28.1716 27.9252 28.3215 28.2871C28.4714 28.6491 28.6911 28.9775 28.9678 29.2535C29.2445 29.5295 29.5728 29.7475 29.9337 29.895C30.2946 30.0425 30.6809 30.1165 31.0704 30.1128L35.2979 30.1128L35.2979 34.3968C35.2942 34.7913 35.3687 35.1826 35.5169 35.5478C35.6651 35.9129 35.8842 36.2447 36.1613 36.5237C36.4384 36.8026 36.7679 37.0232 37.1306 37.1724C37.4934 37.3216 37.882 37.3966 38.2739 37.3928L41.0551 37.3928C41.8444 37.3928 42.6013 37.0772 43.1594 36.5153C43.7175 35.9535 44.0311 35.1914 44.0311 34.3968L44.0311 30.0008L48.2307 30.0008C48.6226 30.0083 49.0119 29.937 49.376 29.7912C49.7402 29.6454 50.0718 29.4279 50.3514 29.1516C50.6311 28.8752 50.8533 28.5455 51.0049 28.1817C51.1565 27.8179 51.2346 27.4273 51.2345 27.0328L51.2345 24.2328C51.2237 23.8357 51.1352 23.4445 50.9742 23.0818C50.8132 22.7191 50.5827 22.3918 50.296 22.1188C50.0093 21.8458 49.672 21.6323 49.3033 21.4906C48.9346 21.3488 48.5418 21.2816 48.1473 21.2928ZM48.787 27.0328C48.7871 27.1161 48.7704 27.1986 48.7379 27.2752C48.7054 27.3518 48.6579 27.421 48.5981 27.4786C48.5383 27.5362 48.4675 27.581 48.39 27.6102C48.3125 27.6395 48.23 27.6526 48.1473 27.6488L42.7517 27.6488C42.5959 27.6488 42.4417 27.6801 42.2981 27.7409C42.1546 27.8018 42.0245 27.8909 41.9157 28.0031C41.8069 28.1153 41.7214 28.2483 41.6644 28.3942C41.6073 28.5401 41.5798 28.6961 41.5836 28.8528L41.5836 34.2848C41.5836 34.4482 41.5191 34.6049 41.4043 34.7204C41.2896 34.8359 41.134 34.9008 40.9717 34.9008L38.1904 34.9008C38.0281 34.9008 37.8725 34.8359 37.7578 34.7204C37.643 34.6049 37.5786 34.4482 37.5786 34.2848L37.5786 28.8528C37.5786 28.5335 37.4526 28.2273 37.2283 28.0015C37.004 27.7757 36.6998 27.6488 36.3826 27.6488L31.0704 27.6488C30.9082 27.6488 30.7525 27.5839 30.6378 27.4684C30.523 27.3529 30.4586 27.1962 30.4586 27.0328L30.4586 24.2328C30.4548 24.1496 30.4678 24.0665 30.4969 23.9885C30.526 23.9105 30.5704 23.8392 30.6276 23.779C30.6848 23.7188 30.7536 23.6709 30.8297 23.6382C30.9058 23.6056 30.9877 23.5887 31.0704 23.5888L36.4661 23.5888C36.7785 23.5889 37.0785 23.4659 37.302 23.2461C37.5255 23.0264 37.6547 22.7273 37.662 22.4128L37.662 17.0648C37.662 16.9015 37.7265 16.7448 37.8412 16.6293C37.956 16.5137 38.1116 16.4488 38.2739 16.4488L41.0551 16.4488C41.2174 16.4488 41.373 16.5137 41.4878 16.6293C41.6025 16.7448 41.667 16.9015 41.667 17.0648L41.667 22.4128C41.6669 22.7274 41.7891 23.0294 42.0074 23.2544C42.2257 23.4794 42.5228 23.6095 42.8351 23.6168L48.2307 23.6168C48.3147 23.6168 48.3979 23.6335 48.4755 23.6659C48.5532 23.6982 48.6237 23.7457 48.6831 23.8055C48.7425 23.8653 48.7896 23.9362 48.8217 24.0144C48.8539 24.0925 48.8704 24.1763 48.8704 24.2608L48.787 27.0328Z" fill="#E67F78"/>
</svg>
