<svg width="24" height="24" viewBox="0 0 24 24" fill="none" xmlns="http://www.w3.org/2000/svg">
<path d="M11.9078 23.8701H6.6327C5.05518 23.8664 3.53053 23.3018 2.33188 22.2775C1.13323 21.2531 0.338916 19.836 0.0912375 18.2799C0.0308058 17.9033 0.00039007 17.5224 0.000283358 17.1409C0.000283358 13.661 0.000283358 10.1811 0.000283358 6.70124C-0.014407 5.11244 0.542538 3.57119 1.56976 2.35798C2.59697 1.14476 4.02618 0.340241 5.59725 0.090844C5.91829 0.0333733 6.24359 0.00298245 6.56973 0C10.1565 0 13.7432 0 17.3299 0C18.8842 0.0244438 20.3807 0.592251 21.5592 1.60465C22.7378 2.61706 23.5237 4.01003 23.7804 5.54129C23.8399 5.92511 23.8703 6.31285 23.8714 6.70124C23.8714 10.1718 23.8714 13.6447 23.8714 17.12C23.8882 18.8776 23.2071 20.5704 21.9771 21.8277C20.7472 23.0849 19.0687 23.8042 17.3089 23.8282C15.4759 23.8841 13.6779 23.8701 11.9078 23.8701ZM21.4787 11.949C21.4787 10.244 21.4787 8.53204 21.4787 6.82703C21.4834 6.54851 21.4623 6.27014 21.4157 5.99549C21.2497 4.97401 20.7174 4.0477 19.918 3.3894C19.1185 2.73109 18.1066 2.38575 17.071 2.41777H6.78661C6.51707 2.41447 6.24779 2.43551 5.98205 2.48066C4.96295 2.64429 4.03776 3.17127 3.37785 3.964C2.71795 4.75672 2.36806 5.76145 2.39299 6.79208C2.39299 10.23 2.39299 13.6704 2.39299 17.113C2.39067 17.3752 2.41175 17.6371 2.45596 17.8956C2.61811 18.9135 3.14406 19.8383 3.93643 20.4986C4.7288 21.159 5.7339 21.5102 6.76562 21.4873H17.099C17.633 21.4918 18.1636 21.4019 18.6662 21.2218C19.4945 20.9174 20.2081 20.3644 20.7092 19.6388C21.2103 18.9131 21.4742 18.0503 21.4647 17.1689C21.4577 15.4289 21.4507 13.689 21.4507 11.949H21.4787Z" fill="white"/>
<path d="M12.342 6.38136C13.5232 6.37998 14.6783 6.72915 15.6609 7.38467C16.6435 8.04019 17.4095 8.97256 17.8618 10.0637C18.3142 11.1549 18.4325 12.3557 18.2019 13.5142C17.9713 14.6726 17.4021 15.7366 16.5664 16.5714C15.7306 17.4061 14.666 17.974 13.5072 18.2033C12.3485 18.4326 11.1478 18.3128 10.0572 17.8592C8.96654 17.4055 8.03506 16.6385 7.38069 15.6551C6.72632 14.6717 6.37849 13.5163 6.38126 12.3351C6.37282 11.5503 6.52128 10.7717 6.81794 10.0451C7.11459 9.3185 7.55345 8.6585 8.10875 8.10386C8.66404 7.54922 9.32457 7.11113 10.0515 6.81533C10.7785 6.51954 11.5572 6.372 12.342 6.38136ZM15.9311 12.3561C15.9338 11.6476 15.7265 10.9543 15.3352 10.3637C14.9439 9.77307 14.3862 9.31178 13.7327 9.03812C13.0793 8.76445 12.3593 8.69069 11.6639 8.82619C10.9686 8.96169 10.329 9.30036 9.82607 9.79935C9.32316 10.2983 8.9795 10.9353 8.83858 11.6296C8.69765 12.3239 8.76578 13.0444 9.03433 13.6999C9.30288 14.3555 9.7598 14.9167 10.3473 15.3126C10.9348 15.7085 11.6266 15.9213 12.335 15.9241C12.8061 15.9306 13.2736 15.8429 13.7103 15.6661C14.1469 15.4893 14.5438 15.227 14.8775 14.8945C15.2113 14.5621 15.4752 14.1662 15.6537 13.7303C15.8322 13.2944 15.9218 12.8271 15.9171 12.3561H15.9311Z" fill="white"/>
<circle cx="18.3452" cy="5.58333" r="0.797618" fill="white"/>
</svg>
