<svg width="36" height="43" viewBox="0 0 36 43" fill="none" xmlns="http://www.w3.org/2000/svg">
<path d="M4.96744 35.6253H15.6279C16.9674 39.8799 20.9302 43 25.5628 43C31.3116 43 36 38.2348 36 32.3918C36 29.6121 34.9395 27.1161 33.2093 25.1873V8.05541C33.2093 5.27572 30.9767 3.0066 28.2419 3.0066H25.507V1.13456C25.507 0.510554 25.0047 0 24.3907 0C23.7767 0 23.2744 0.510554 23.2744 1.13456V3.0066H9.87907V1.13456C9.87907 0.510554 9.37675 0 8.76279 0C8.14884 0 7.64651 0.510554 7.64651 1.13456V3.0066H4.96744C2.23256 3.0066 0 5.27572 0 8.05541V30.5765C0 33.3562 2.23256 35.6253 4.96744 35.6253ZM25.5628 40.7309C21.0419 40.7309 17.3581 36.9868 17.3581 32.3918C17.3581 31.4274 17.5256 30.5198 17.8047 29.6689C18.0279 29.1016 17.693 28.4208 17.1349 28.2507C16.5767 28.0237 15.907 28.3641 15.7395 28.9314C15.3488 30.066 15.1814 31.2005 15.1814 32.3918C15.1814 32.7322 15.1814 33.0158 15.2372 33.3562H4.96744C3.46047 33.3562 2.23256 32.1082 2.23256 30.5765V14.1821H30.9767V23.3153C29.8605 22.6346 28.6326 22.1807 27.3488 21.9538L29.5814 19.8549C30.0279 19.4011 30.0837 18.7203 29.6372 18.2665C29.1907 17.8127 28.5209 17.7559 28.0744 18.2098L23.8884 22.1807C23.4419 22.6346 23.386 23.3153 23.8326 23.7691L27.7395 28.0237C27.9628 28.2507 28.2419 28.3641 28.5767 28.3641C28.8558 28.3641 29.1349 28.2507 29.3581 28.0805C29.8047 27.6266 29.8605 26.9459 29.414 26.4921L27.4047 24.2797C28.9116 24.6201 30.1954 25.3575 31.3116 26.3786C31.4233 26.4921 31.4791 26.6055 31.6465 26.719C33.0419 28.1939 33.9349 30.2362 33.9349 32.4486C33.7674 36.9868 30.0837 40.7309 25.5628 40.7309ZM4.96744 5.27573H7.64651V6.24011C7.64651 6.86412 8.14884 7.37467 8.76279 7.37467C9.37675 7.37467 9.87907 6.86412 9.87907 6.24011V5.27573H23.2744V6.24011C23.2744 6.86412 23.7767 7.37467 24.3907 7.37467C25.0047 7.37467 25.507 6.86412 25.507 6.24011V5.27573H28.1861C29.693 5.27573 30.9209 6.52375 30.9209 8.05541V11.9129H2.23256V8.05541C2.23256 6.52375 3.46047 5.27573 4.96744 5.27573Z" fill="#FFEDE3"/>
</svg>
