<svg width="66" height="87" viewBox="0 0 66 87" fill="none" xmlns="http://www.w3.org/2000/svg">
<path d="M63.9668 34.9199C63.6405 34.3941 63.4676 33.7874 63.4676 33.1684C63.4676 32.5493 63.6405 31.9426 63.9668 31.4169L64.6474 30.3319C65.4242 28.9763 65.6614 27.3768 65.3115 25.8535C64.9616 24.3303 64.0503 22.9956 62.7602 22.1169L61.7083 21.4039C61.2021 21.0682 60.7927 20.6052 60.5212 20.0611C60.2498 19.517 60.1257 18.9111 60.1614 18.3039L60.1614 17.0639C60.2891 15.5005 59.8207 13.9467 58.8504 12.7156C57.8802 11.4846 56.4804 10.6678 54.933 10.4299L53.6646 10.4299C53.0502 10.3589 52.4674 10.1185 51.9813 9.73542C51.4952 9.35229 51.1247 8.84148 50.9111 8.25986L50.478 7.05086C49.9255 5.59274 48.8448 4.39685 47.4515 3.70163C46.0581 3.00642 44.4544 2.86296 42.9602 3.29986L41.7536 3.67186C41.1706 3.87309 40.5431 3.90716 39.9419 3.77023C39.3406 3.6333 38.7894 3.33081 38.3505 2.89686L37.4224 2.02886C36.2765 0.956691 34.7672 0.360352 33.1994 0.360352C31.6316 0.360352 30.1223 0.956691 28.9764 2.02886L28.0793 2.89686C27.6403 3.33081 27.0892 3.6333 26.4879 3.77023C25.8866 3.90716 25.2591 3.87309 24.6761 3.67186L23.4696 3.29986C21.9784 2.82912 20.3646 2.94148 18.9527 3.61434C17.5409 4.2872 16.4355 5.47069 15.8589 6.92686L15.4258 8.13586C15.2123 8.71748 14.8418 9.22829 14.3557 9.61142C13.8695 9.99454 13.2868 10.2349 12.6724 10.3059L11.5586 10.3369C9.98305 10.5389 8.54537 11.3404 7.54328 12.5753C6.5412 13.8103 6.05147 15.3841 6.17551 16.9709L6.17551 18.2109C6.22428 18.8164 6.10922 19.4239 5.84244 19.9695C5.57566 20.515 5.16703 20.9784 4.65957 21.3109L3.6077 22.0239C2.31758 22.9026 1.40634 24.2372 1.0564 25.7605C0.706463 27.2838 0.943663 28.8833 1.72051 30.2389L2.3702 31.3239C2.68968 31.852 2.85859 32.4578 2.85859 33.0754C2.85859 33.6929 2.68968 34.2987 2.3702 34.8269L1.72051 35.9429C0.934491 37.3013 0.692153 38.908 1.04243 40.4385C1.39271 41.969 2.3095 43.3093 3.6077 44.1889L4.65957 44.8709C5.16703 45.2033 5.57566 45.6667 5.84244 46.2122C6.10922 46.7578 6.22428 47.3653 6.17551 47.9709L6.17551 49.2109C6.00923 50.823 6.47952 52.4362 7.48568 53.7051C8.49183 54.974 9.95385 55.7978 11.5586 55.9999L12.5796 55.9999L4.78332 77.6999C4.72548 77.9267 4.71766 78.1635 4.7604 78.3937C4.80315 78.6239 4.89542 78.842 5.03082 79.0329C5.18726 79.1993 5.38135 79.3256 5.59672 79.4012C5.8121 79.4767 6.04244 79.4992 6.26832 79.4669L17.7152 77.6689L25.4186 86.4109C25.5429 86.5501 25.6956 86.661 25.8665 86.7359C26.0373 86.8108 26.2222 86.8479 26.4086 86.8449L26.6561 86.8449C26.8831 86.7902 27.0928 86.6792 27.2658 86.5221C27.4388 86.365 27.5696 86.1669 27.6461 85.9459L33.2149 70.1669L38.9383 86.1009C39.0149 86.3219 39.1457 86.52 39.3187 86.6771C39.4917 86.8342 39.7013 86.9452 39.9283 86.9999L40.1758 86.9999C40.3623 87.0029 40.5472 86.9658 40.718 86.8909C40.8888 86.816 41.0415 86.7051 41.1658 86.5659L48.8693 77.6999L60.3161 79.4979C60.542 79.5302 60.7724 79.5077 60.9877 79.4322C61.2031 79.3566 61.3972 79.2303 61.5536 79.0639C61.7049 78.8811 61.8048 78.6612 61.8429 78.4269C61.8809 78.1925 61.8558 77.9522 61.7702 77.7309L54.0049 56.0309L55.0258 56.0309C56.5674 55.7932 57.9626 54.9809 58.9321 53.7566C59.9016 52.5322 60.3738 50.9862 60.2543 49.4279L60.2543 48.1879C60.2185 47.5806 60.3426 46.9747 60.6141 46.4306C60.8855 45.8866 61.2949 45.4235 61.8011 45.0879L62.853 44.4059C64.1512 43.5263 65.068 42.186 65.4183 40.6555C65.7686 39.125 65.5262 37.5183 64.7402 36.1599L63.9668 34.9199ZM25.7589 83.0629L19.1074 75.4679C18.976 75.3293 18.8175 75.2193 18.6419 75.1446C18.4663 75.0699 18.2772 75.0322 18.0864 75.0339L17.7461 75.0339L7.8152 76.6149L14.6833 57.3949C14.9421 57.678 15.1513 58.0029 15.3021 58.3559L15.7352 59.5649C16.306 61.0267 17.4089 62.2172 18.8214 62.8961C20.2339 63.575 21.8508 63.6918 23.3458 63.2229L24.5524 62.8199C25.1362 62.6257 25.7619 62.5953 26.3618 62.7319C26.9616 62.8685 27.5128 63.1669 27.9555 63.5949L28.8527 64.4629C29.6081 65.1979 30.5495 65.7124 31.5752 65.9509L31.5752 66.1989L25.7589 83.0629ZM48.6836 75.0339C48.4577 75.0015 48.2274 75.024 48.012 75.0996C47.7967 75.1751 47.6026 75.3014 47.4461 75.4679L40.7946 83.0629L34.7618 66.1989L34.7618 65.9509C35.7836 65.7259 36.7185 65.209 37.4533 64.4629L38.3814 63.5949C38.8242 63.1669 39.3753 62.8685 39.9752 62.7319C40.575 62.5953 41.2007 62.6257 41.7846 62.8199L42.9911 63.2229C44.4862 63.6918 46.1031 63.575 47.5156 62.8961C48.9281 62.2172 50.031 61.0267 50.6018 59.5649L51.0349 58.3559C51.1743 57.997 51.3847 57.67 51.6536 57.3949L58.5218 76.6149L48.6836 75.0339ZM61.7702 36.3149L62.4199 37.3999C62.8684 38.1582 63.0093 39.0602 62.8136 39.9196C62.6179 40.7791 62.1004 41.5305 61.368 42.0189L60.3161 42.7009C59.4031 43.3142 58.6696 44.1602 58.1911 45.1518C57.7126 46.1434 57.5064 47.2449 57.5936 48.3429L57.5936 49.6449C57.658 50.5177 57.391 51.3828 56.846 52.0668C56.301 52.7508 55.5183 53.2034 54.6546 53.3339L53.3861 53.5199C52.2986 53.6774 51.2726 54.1222 50.4135 54.8087C49.5544 55.4952 48.8933 56.3985 48.498 57.4259L48.0649 58.6039C47.7447 59.4237 47.1257 60.0911 46.3331 60.471C45.5405 60.8508 44.6334 60.9148 43.7955 60.6499L42.4961 60.2779C41.4378 59.9254 40.3041 59.866 39.2149 60.1061C38.1258 60.3462 37.1216 60.8769 36.3086 61.6419L35.4114 62.5409C34.7679 63.1513 33.9154 63.4915 33.0293 63.4915C32.1431 63.4915 31.2906 63.1513 30.6471 62.5409L29.7499 61.6419C28.6088 60.5713 27.1056 59.9733 25.5424 59.9679C24.9015 59.9778 24.2657 60.0823 23.6552 60.2779L22.4486 60.6499C21.6107 60.9148 20.7037 60.8508 19.9111 60.471C19.1184 60.0911 18.4994 59.4237 18.1793 58.6039L17.7461 57.4259C17.3665 56.4228 16.7337 55.5355 15.9094 54.8509C15.0852 54.1663 14.0977 53.7076 13.0436 53.5199L11.7752 53.3339C10.8833 53.2397 10.0626 52.8026 9.48569 52.1147C8.90874 51.4267 8.62045 50.5414 8.68145 49.6449L8.68145 48.3429C8.772 47.2478 8.5705 46.1483 8.09756 45.1569C7.62461 44.1656 6.89723 43.3179 5.98988 42.7009L4.93801 42.0189C4.25294 41.4891 3.78831 40.7235 3.63401 39.8703C3.47971 39.0171 3.64671 38.1368 4.1027 37.3999L4.78332 36.3149C5.32639 35.3723 5.61229 34.3032 5.61229 33.2149C5.61229 32.1265 5.32639 31.0574 4.78332 30.1149L4.1027 29.0609C3.66465 28.297 3.5328 27.3948 3.73386 26.5371C3.93492 25.6794 4.45385 24.9304 5.18551 24.4419L6.23738 23.7289C7.15669 23.1312 7.8941 22.2915 8.36885 21.3018C8.8436 20.3121 9.03738 19.2106 8.92895 18.1179L8.92895 16.8159C8.85957 15.9142 9.14403 15.021 9.72181 14.3262C10.2996 13.6315 11.1251 13.1901 12.0227 13.0959L13.2911 13.0959C14.3854 12.9577 15.4205 12.52 16.2829 11.831C17.1452 11.1419 17.8013 10.2281 18.1793 9.18986L18.6124 8.01186C18.9264 7.18726 19.5446 6.51508 20.3392 6.13429C21.1338 5.75349 22.044 5.69319 22.8818 5.96586L23.9336 6.08986C24.9919 6.44235 26.1256 6.50168 27.2148 6.26158C28.304 6.02147 29.3082 5.49086 30.1211 4.72586L31.0183 3.82686C31.6687 3.22997 32.5186 2.89889 33.4005 2.89889C34.2824 2.89889 35.1324 3.22997 35.7827 3.82686L36.6799 4.72586C37.4928 5.49086 38.497 6.02147 39.5862 6.26158C40.6754 6.50168 41.8091 6.44235 42.8674 6.08986L44.0739 5.71786C44.9117 5.44519 45.8219 5.50549 46.6165 5.88629C47.4111 6.26708 48.0293 6.93926 48.3433 7.76386L48.7764 8.94186C49.1514 9.982 49.8066 10.8977 50.6695 11.5872C51.5324 12.2767 52.5691 12.7131 53.6646 12.8479L54.933 12.8479C55.8025 12.9786 56.5899 13.4356 57.1356 14.1263C57.6813 14.8171 57.9446 15.6899 57.8721 16.5679L57.8721 17.8699C57.7703 18.9652 57.9704 20.0675 58.4504 21.0568C58.9304 22.0461 59.672 22.8845 60.5946 23.4809L61.6464 24.1939C62.3789 24.6822 62.8963 25.4336 63.0921 26.2931C63.2878 27.1525 63.1468 28.0545 62.6983 28.8129L62.0486 29.8979C61.4025 30.8284 61.0234 31.9187 60.9525 33.05C60.8816 34.1814 61.1216 35.3106 61.6464 36.3149L61.7702 36.3149Z" fill="#E67F78"/>
<path d="M43.8453 42.6378L42.8377 37.0015C42.7964 36.9193 42.7749 36.8289 42.7749 36.7373C42.7749 36.6457 42.7964 36.5553 42.8377 36.4731L47.4439 32.4924C47.9469 32.0066 48.3036 31.3946 48.475 30.7236C48.6464 30.0525 48.6258 29.3482 48.4156 28.6879C48.2082 28.0289 47.8078 27.444 47.2641 27.0057C46.7204 26.5673 46.0572 26.2948 45.3567 26.222L39.5989 25.3765C39.4943 25.3559 39.3953 25.3139 39.3084 25.2532C39.2216 25.1925 39.1489 25.1144 39.0951 25.0242L36.4321 19.8811C36.1097 19.2756 35.6238 18.7683 35.0274 18.4143C34.431 18.0602 33.7469 17.8731 33.0494 17.8731C32.351 17.8691 31.6652 18.0547 31.0681 18.4091C30.471 18.7636 29.9859 19.2731 29.6666 19.8811L27.1116 25.0242C27.0578 25.1144 26.9851 25.1925 26.8982 25.2532C26.8114 25.3139 26.7124 25.3559 26.6078 25.3765L20.85 26.222C20.1495 26.2948 19.4863 26.5673 18.9426 27.0057C18.3989 27.444 17.9985 28.0289 17.7911 28.6879C17.5673 29.3389 17.5294 30.0374 17.6817 30.7079C17.8339 31.3784 18.1704 31.9955 18.6548 32.4924L22.8292 36.4731C22.9007 36.5403 22.9544 36.6235 22.9858 36.7156C23.0171 36.8076 23.0251 36.9057 23.0091 37.0015L22.2534 42.6378C22.1618 43.3036 22.2537 43.9812 22.5194 44.6006C22.7851 45.2199 23.2151 45.7585 23.7649 46.1606C24.3274 46.5768 25.0025 46.8221 25.7063 46.8659C26.41 46.9098 27.1115 46.7502 27.7234 46.4072L32.9054 43.7651C32.9916 43.7119 33.0914 43.6837 33.1933 43.6837C33.2952 43.6837 33.395 43.7119 33.4812 43.7651L38.6632 46.4072C39.1907 46.7298 39.8052 46.8894 40.4266 46.8651C41.2151 46.858 41.982 46.6119 42.6218 46.1606C43.1196 45.7272 43.494 45.1747 43.7085 44.5573C43.923 43.9398 43.9701 43.2785 43.8453 42.6378ZM39.8868 37.5299L40.8944 43.1663C40.9314 43.274 40.9261 43.3915 40.8795 43.4956C40.833 43.5998 40.7485 43.6833 40.6425 43.7299C40.5415 43.7965 40.4224 43.8321 40.3006 43.8321C40.1788 43.8321 40.0598 43.7965 39.9588 43.7299L34.8127 41.0174C34.2516 40.7522 33.6365 40.6145 33.0134 40.6145C32.3903 40.6145 31.7752 40.7522 31.2141 41.0174L26.068 43.7299C25.967 43.7965 25.8479 43.8321 25.7261 43.8321C25.6043 43.8321 25.4853 43.7965 25.3843 43.7299C25.3843 43.7299 25.0604 43.5185 25.1324 43.1663L26.14 37.5299C26.2273 36.9394 26.1754 36.3371 25.9883 35.7693C25.8011 35.2014 25.4837 34.683 25.0604 34.2538L20.85 30.2731C20.7799 30.1816 20.742 30.0704 20.742 29.956C20.742 29.8417 20.7799 29.7305 20.85 29.639C20.8791 29.5263 20.9432 29.4251 21.0334 29.3495C21.1236 29.2738 21.2355 29.2273 21.3538 29.2163L27.1476 28.406C27.7435 28.3103 28.3081 28.0786 28.7957 27.7298C29.2833 27.381 29.6803 26.9248 29.9545 26.3981L32.5456 21.2549C32.6 21.1514 32.6826 21.0646 32.7842 21.004C32.8857 20.9434 33.0024 20.9113 33.1213 20.9113C33.2403 20.9113 33.3569 20.9434 33.4585 21.004C33.5601 21.0646 33.6426 21.1514 33.6971 21.2549L36.2881 26.3981C36.5447 26.9376 36.9366 27.4048 37.4275 27.7559C37.9183 28.107 38.492 28.3307 39.0951 28.406L44.8889 29.2163C45.0072 29.2273 45.1191 29.2738 45.2093 29.3495C45.2995 29.4251 45.3635 29.5263 45.3927 29.639C45.4533 29.7341 45.4855 29.8439 45.4855 29.956C45.4855 30.0681 45.4533 30.178 45.3927 30.2731L40.9664 34.3242C40.5533 34.7457 40.2419 35.2524 40.055 35.8072C39.8682 36.3619 39.8107 36.9506 39.8868 37.5299Z" fill="#E67F78"/>
</svg>
