<svg width="24" height="25" viewBox="0 0 24 25" fill="none" xmlns="http://www.w3.org/2000/svg">
<path d="M1.59521 6.8453L12.1452 14.8215L22.3333 7.13058" stroke="white" stroke-width="2.5" stroke-linecap="round" stroke-linejoin="round"/>
<path d="M11.9078 24.3345H6.6327C5.05518 24.3308 3.53053 23.7662 2.33188 22.7418C1.13323 21.7175 0.338916 20.3003 0.0912375 18.7443C0.0308058 18.3676 0.00039007 17.9867 0.000283358 17.6053C0.000283358 14.1254 0.000283358 10.6455 0.000283358 7.16559C-0.014407 5.57679 0.542538 4.03555 1.56976 2.82233C2.59697 1.60912 4.02618 0.804596 5.59725 0.555199C5.91829 0.497729 6.24359 0.467338 6.56973 0.464355C10.1565 0.464355 13.7432 0.464355 17.3299 0.464355C18.8842 0.488799 20.3807 1.05661 21.5592 2.06901C22.7378 3.08141 23.5237 4.47438 23.7804 6.00565C23.8399 6.38947 23.8703 6.7772 23.8714 7.16559C23.8714 10.6362 23.8714 14.1091 23.8714 17.5843C23.8882 19.342 23.2071 21.0348 21.9771 22.292C20.7472 23.5493 19.0687 24.2686 17.3089 24.2925C15.4759 24.3484 13.6779 24.3345 11.9078 24.3345ZM21.4787 12.4134C21.4787 10.7084 21.4787 8.9964 21.4787 7.29139C21.4834 7.01286 21.4623 6.73449 21.4157 6.45985C21.2497 5.43837 20.7174 4.51206 19.918 3.85375C19.1185 3.19545 18.1066 2.85011 17.071 2.88213H6.78661C6.51707 2.87882 6.24779 2.89987 5.98205 2.94502C4.96295 3.10865 4.03776 3.63563 3.37785 4.42835C2.71795 5.22108 2.36806 6.2258 2.39299 7.25644C2.39299 10.6944 2.39299 14.1347 2.39299 17.5773C2.39067 17.8396 2.41175 18.1015 2.45596 18.36C2.61811 19.3779 3.14406 20.3026 3.93643 20.963C4.7288 21.6234 5.7339 21.9746 6.76562 21.9516H17.099C17.633 21.9562 18.1636 21.8663 18.6662 21.6861C19.4945 21.3818 20.2081 20.8288 20.7092 20.1031C21.2103 19.3775 21.4742 18.5147 21.4647 17.6332C21.4577 15.8933 21.4507 14.1533 21.4507 12.4134H21.4787Z" fill="white"/>
</svg>
