<svg width="323" height="210" viewBox="0 0 323 210" fill="none" xmlns="http://www.w3.org/2000/svg">
<g filter="url(#filter0_d_1137_8369)">
<path d="M264.555 44.6476C263.513 43.5976 262.105 43.0216 260.758 43.1217C240.161 43.2483 212.449 54.3608 194.37 66.325C192.047 43.3648 182.221 21.097 164.877 3.59698C163.929 2.64098 162.576 2.0874 161.174 2.0874C159.772 2.0874 158.425 2.64098 157.477 3.59698C142.456 18.7458 130.833 45.2461 126.877 66.8765C109.058 52.2751 86.4445 43.3974 61.9072 43.1421C60.4886 43.1319 59.1642 43.663 58.1715 44.6476C57.1909 45.6158 56.626 46.96 56.626 48.3368V57.9723C56.626 58.1439 56.6362 58.3155 56.6546 58.5034C58.2943 74.6042 69.3971 99.5826 79.0856 114.903L94.6304 121.072C85.3657 106.763 68.5865 72.5063 67.0349 57.7067V53.7296C90.3419 55.2779 112.13 65.4671 128.619 82.5912C142.09 96.5798 152.214 125.296 155.541 145.24L173.542 152.381C225.343 145.738 265.787 101.513 266.076 48.3429C266.086 46.9661 265.534 45.6158 264.557 44.6476H264.555ZM135.519 74.7962C138.184 56.6261 149.021 28.5734 161.176 14.8463C176.684 32.4076 184.954 55.0287 184.516 78.851C184.133 99.4641 177.233 119.05 164.902 135.151C161.897 111.853 151.221 90.8418 135.521 74.7962H135.519ZM226.612 115.847C211.708 130.254 192.913 139.299 172.744 141.992C187.586 122.853 194.98 99.7399 194.914 76.7041C210.377 66.5436 238.689 54.7182 255.489 53.6846C254.015 77.2086 243.821 99.1986 226.612 115.847Z" fill="white"/>
<path d="M95.156 121.281L94.6299 121.072C94.765 121.283 94.9001 121.489 95.0331 121.689L95.1314 121.732C95.1375 121.581 95.1457 121.432 95.158 121.281H95.156Z" fill="white"/>
<path d="M191.993 78.7075C190.868 79.5205 193.363 78.924 191.993 78.7075V78.7075Z" fill="white"/>
<path d="M136.554 135.457C123.099 128.014 107.88 123.924 92.0303 123.673C69.585 123.317 48.1879 130.64 31.0566 144.425C29.4497 145.718 29.3228 148.12 30.7823 149.577C30.8724 149.666 30.9686 149.752 31.0668 149.832C47.7539 163.273 68.7765 170.674 90.3108 170.684H90.5769C107.536 170.668 124.154 166.121 138.648 157.543C139.84 156.834 141.242 156.63 142.595 156.979C143.942 157.323 145.072 158.168 145.782 159.357C146.492 160.552 146.691 161.945 146.347 163.289C146.003 164.633 145.156 165.767 143.958 166.476C127.853 176.011 109.385 181.055 90.5564 181.073H90.3579C66.2689 181.073 42.7531 172.739 24.1398 157.6C23.9904 157.478 23.8573 157.357 23.7304 157.231L16.9242 150.432C15.9437 149.464 15.3889 148.114 15.3951 146.733C15.4053 145.344 15.9539 144.035 16.959 143.054C34.3011 126.102 56.4167 116.362 79.2345 113.949C104.668 111.261 130.17 118.374 150.523 133.831L173.691 151.427C190.695 164.341 211.646 171.211 233.346 170.803C254.75 170.418 275.187 163.003 291.6 149.789C293.321 148.404 293.327 145.781 291.608 144.394C278.482 133.799 262.858 126.966 246.034 124.508C243.196 124.087 241.223 121.45 241.639 118.617C242.048 115.79 244.693 113.81 247.536 114.225C269.801 117.483 290.042 127.566 306.082 143.401C307.062 144.37 307.623 145.714 307.623 147.091C307.623 148.467 307.065 149.811 306.082 150.78C286.206 170.404 259.734 181.212 231.557 181.212H231.541C203.391 181.212 176.946 170.421 157.082 150.819C157.071 150.812 157.059 150.802 157.049 150.79L157.032 150.774C150.873 144.699 143.985 139.567 136.558 135.457H136.554Z" fill="white"/>
</g>
<defs>
<filter id="filter0_d_1137_8369" x="0.39502" y="0.0874023" width="322.229" height="209.125" filterUnits="userSpaceOnUse" color-interpolation-filters="sRGB">
<feFlood flood-opacity="0" result="BackgroundImageFix"/>
<feColorMatrix in="SourceAlpha" type="matrix" values="0 0 0 0 0 0 0 0 0 0 0 0 0 0 0 0 0 0 127 0" result="hardAlpha"/>
<feOffset dy="13"/>
<feGaussianBlur stdDeviation="7.5"/>
<feComposite in2="hardAlpha" operator="out"/>
<feColorMatrix type="matrix" values="0 0 0 0 0 0 0 0 0 0 0 0 0 0 0 0 0 0 0.1 0"/>
<feBlend mode="normal" in2="BackgroundImageFix" result="effect1_dropShadow_1137_8369"/>
<feBlend mode="normal" in="SourceGraphic" in2="effect1_dropShadow_1137_8369" result="shape"/>
</filter>
</defs>
</svg>
