<?xml version="1.0" encoding="UTF-8"?>
<svg id="Capa_1" data-name="Capa 1" xmlns="http://www.w3.org/2000/svg" viewBox="0 0 292.23 179.12">
  <defs>
    <style>
      .cls-1 {
        fill: #ffede3;
        stroke-width: 0px;
      }
    </style>
  </defs>
  <path class="cls-1" d="m249.16,42.56c-1.04-1.05-2.45-1.63-3.8-1.53-20.6.13-48.31,11.24-66.39,23.2-2.32-22.96-12.15-45.23-29.49-62.73-.95-.96-2.3-1.51-3.7-1.51s-2.75.55-3.7,1.51c-15.02,15.15-26.64,41.65-30.6,63.28-17.82-14.6-40.43-23.48-64.97-23.73-1.42-.01-2.74.52-3.74,1.51-.98.97-1.55,2.31-1.55,3.69v9.64c0,.17.01.34.03.53,1.64,16.1,12.74,41.08,22.43,56.4l15.54,6.17c-9.26-14.31-26.04-48.57-27.6-63.37v-3.98c23.31,1.55,45.1,11.74,61.58,28.86,13.47,13.99,23.6,42.7,26.92,62.65l18,7.14c51.8-6.64,92.24-50.87,92.53-104.04.01-1.38-.54-2.73-1.52-3.7h0Zm-129.04,30.15c2.67-18.17,13.5-46.22,25.66-59.95,15.51,17.56,23.78,40.18,23.34,64-.38,20.61-7.28,40.2-19.61,56.3-3-23.3-13.68-44.31-29.38-60.35h0Zm91.09,41.05c-14.9,14.41-33.7,23.45-53.87,26.15,14.84-19.14,22.24-42.25,22.17-65.29,15.46-10.16,43.77-21.99,60.57-23.02-1.47,23.52-11.67,45.51-28.88,62.16Z"/>
  <path class="cls-1" d="m79.76,119.19l-.53-.21c.14.21.27.42.4.62l.1.04c0-.15.01-.3.03-.45h0Z"/>
  <path class="cls-1" d="m176.6,76.62c-1.12.81,1.37.22,0,0h0Z"/>
  <path class="cls-1" d="m121.16,133.37c-13.46-7.44-28.67-11.53-44.52-11.78-22.45-.36-43.84,6.97-60.97,20.75-1.61,1.29-1.73,3.69-.27,5.15.09.09.19.18.28.26,16.69,13.44,37.71,20.84,59.24,20.85h.27c16.96-.02,33.58-4.56,48.07-13.14,1.19-.71,2.59-.91,3.95-.56,1.35.34,2.48,1.19,3.19,2.38.71,1.2.91,2.59.57,3.93s-1.19,2.48-2.39,3.19c-16.1,9.54-34.57,14.58-53.4,14.6h-.2c-24.09,0-47.6-8.33-66.22-23.47-.15-.12-.28-.24-.41-.37l-6.81-6.8C.55,147.38,0,146.03,0,144.65c.01-1.39.56-2.7,1.56-3.68,17.34-16.95,39.46-26.69,62.28-29.11,25.43-2.69,50.94,4.43,71.29,19.88l23.17,17.6c17,12.91,37.96,19.78,59.65,19.38,21.4-.38,41.84-7.8,58.25-21.01,1.72-1.38,1.73-4.01,0-5.4-13.13-10.6-28.75-17.43-45.57-19.89-2.84-.42-4.81-3.06-4.39-5.89.41-2.83,3.05-4.81,5.9-4.39,22.26,3.26,42.51,13.34,58.55,29.18.98.97,1.54,2.31,1.54,3.69s-.56,2.72-1.54,3.69c-19.88,19.62-46.35,30.43-74.52,30.43h-.02c-28.15,0-54.6-10.79-74.46-30.39-.01,0-.02-.02-.03-.03l-.02-.02c-6.16-6.07-13.05-11.21-20.47-15.32h0Z"/>
</svg>